<svg xmlns="http://www.w3.org/2000/svg" viewBox="0 0 332.22 96.00" width="332.22" height="96.00">
  
  <g transform="translate(16,16.00) scale(2.0)">
  <rect x="0" y="0" width="32" height="5" rx="1" fill="#2563eb"/>
  <rect x="0" y="9" width="44" height="5" rx="1" fill="#dc2626"/>
  <rect x="0" y="18" width="26" height="5" rx="1" fill="#16a34a"/>
  <rect x="0" y="27" width="36" height="5" rx="1" fill="#1f2937"/>
  </g>
  <g transform="translate(128.00,23.42)">
  <path d="M995 0 381 1085Q399 927 399 831V0H137V1409H474L1097 315Q1079 466 1079 590V1409H1341V0Z" transform="translate(0.000,39.832) scale(0.021484,-0.021484)" fill="#0f172a"/>
  <path d="M1171 542Q1171 279 1025.0 129.5Q879 -20 621 -20Q368 -20 224.0 130.0Q80 280 80 542Q80 803 224.0 952.5Q368 1102 627 1102Q892 1102 1031.5 957.5Q1171 813 1171 542ZM877 542Q877 735 814.0 822.0Q751 909 631 909Q375 909 375 542Q375 361 437.5 266.5Q500 172 618 172Q877 172 877 542Z" transform="translate(31.775,39.832) scale(0.021484,-0.021484)" fill="#0f172a"/>
  <path d="M1167 545Q1167 277 1059.5 128.5Q952 -20 752 -20Q637 -20 553.0 30.0Q469 80 424 174H422Q422 139 417.5 78.0Q413 17 408 0H135Q143 93 143 247V1484H424V1070L420 894H424Q519 1102 770 1102Q962 1102 1064.5 956.5Q1167 811 1167 545ZM874 545Q874 729 820.0 818.0Q766 907 653 907Q539 907 479.5 811.5Q420 716 420 536Q420 364 478.5 268.0Q537 172 651 172Q874 172 874 545Z" transform="translate(58.652,39.832) scale(0.021484,-0.021484)" fill="#0f172a"/>
  <path d="M586 -20Q342 -20 211.0 124.5Q80 269 80 546Q80 814 213.0 958.0Q346 1102 590 1102Q823 1102 946.0 947.5Q1069 793 1069 495V487H375Q375 329 433.5 248.5Q492 168 600 168Q749 168 788 297L1053 274Q938 -20 586 -20ZM586 925Q487 925 433.5 856.0Q380 787 377 663H797Q789 794 734.0 859.5Q679 925 586 925Z" transform="translate(85.529,39.832) scale(0.021484,-0.021484)" fill="#0f172a"/>
  <path d="M143 0V1484H424V0Z" transform="translate(110.000,39.832) scale(0.021484,-0.021484)" fill="#0f172a"/>
  <path d="M1258 985Q1258 785 1127.5 667.0Q997 549 773 549H359V0H168V1409H761Q998 1409 1128.0 1298.0Q1258 1187 1258 985ZM1066 983Q1066 1256 738 1256H359V700H746Q1066 700 1066 983Z" transform="translate(122.225,39.832) scale(0.021484,-0.021484)" fill="#0f172a"/>
  <path d="M1366 0V940Q1366 1096 1375 1240Q1326 1061 1287 960L923 0H789L420 960L364 1130L331 1240L334 1129L338 940V0H168V1409H419L794 432Q814 373 832.5 305.5Q851 238 857 208Q865 248 890.5 329.5Q916 411 925 432L1293 1409H1538V0Z" transform="translate(151.572,39.832) scale(0.021484,-0.021484)" fill="#0f172a"/>
  </g>
</svg>
